# xmcd CD database file
#
# Track frame offsets:
#	150
#	27385
#	39135
#	56167
#	76962
#	97957
#	118277
#	135370
#	147475
#	166842
#
# Disc length: 2587 seconds
#
# Revision: 3
# Processed by: cddbd v1.5.2PL0 Copyright (c) Steve Scherf et al.
# Submitted via: CDex 1.51
#
DISCID=7f0a190a
DTITLE=たま - いなくていい人
DYEAR=1998
DGENRE=フォーク
TTITLE0=いなくていいひと
TTITLE1=へっぽこぴー
TTITLE2=ぎが
TTITLE3=青空
TTITLE4=箱の中の人
TTITLE5=326
TTITLE6=健さん
TTITLE7=ハッピーマン
TTITLE8=南風
TTITLE9=サーカスの日
EXTD=YEAR: 1998
EXTT0=
EXTT1=
EXTT2=
EXTT3=
EXTT4=
EXTT5=
EXTT6=
EXTT7=
EXTT8=
EXTT9=
PLAYORDER=
